<svg id="Layer_1" data-name="Layer 1" xmlns="http://www.w3.org/2000/svg" viewBox="0 0 448 448"><defs><style>.cls-1{fill:#29abe2;}.cls-2{fill:#fff;stroke:#fff;stroke-miterlimit:10;}</style></defs><circle class="cls-1" cx="224" cy="224" r="224"/><path class="cls-2" d="M562,514c0-20.1,16.73-36.59,37.78-36.59s37.79,16.49,37.79,36.59c0,19.58-16.74,36.07-37.79,36.07S562,533.55,562,514Z" transform="translate(-449.79 -217.94)"/><path class="cls-2" d="M746.83,317.32c0,6.14-3,20.48-5.16,35.84l-2.58,16.38,16.21-7.17c18.41-8.19,33.15-15.7,40.88-15.7a11.27,11.27,0,0,1,11.42,11.61c0,13-18.78,13.31-47.51,17.74l-17.68,2.73L754.93,391c16.57,16,29.84,25.26,29.84,34.81,0,6.49-5.9,10.58-11.79,10.58-11.79,0-18.05-15.36-30.57-37.2l-8.48-14.67-8.47,14.67c-12.52,21.84-18.78,37.2-30.57,37.2-5.89,0-11.79-4.09-11.79-10.58,0-9.55,13.26-18.77,29.84-34.81l12.52-12.29L707.78,376c-29.1-4.43-47.52-5.46-47.52-17.74a11.36,11.36,0,0,1,11.79-11.61c8.47,0,22.1,7.51,40.52,15.7l16.21,7.17-2.58-16.38c-2.58-15.36-4.79-29.35-4.79-35.84,0-8.53,5.16-11.94,12.52-11.94S746.83,308.79,746.83,317.32Z" transform="translate(-449.79 -217.94)"/></svg>