<svg id="Layer_1" data-name="Layer 1" xmlns="http://www.w3.org/2000/svg" viewBox="0 0 89 101"><defs><style>.cls-1,.cls-3{fill:#93d4f0;}.cls-2{fill:#3fa9f5;}.cls-3{stroke:#3fa9f5;stroke-miterlimit:10;}</style></defs><rect class="cls-1" x="30.5" y="16.5" width="10" height="77.99"/><path class="cls-2" d="M111,99v77h-9V99h9m1-1H101v79h11V98Z" transform="translate(-71 -82)"/><rect class="cls-2" x="57" width="11" height="101" rx="5.5"/><rect class="cls-2" width="89" height="11" rx="5.5"/><path class="cls-3" d="M92.88,148.59h0a4.76,4.76,0,0,1,4.76,4.76v35.43a0,0,0,0,1,0,0h0A10.76,10.76,0,0,1,86.88,178V154.59A6,6,0,0,1,92.88,148.59Z" transform="translate(-168.03 53) rotate(-51.23)"/><path class="cls-1" d="M111,176l-.08.76-.33.4-.75-.15-1.76-.79-.75-1.23-4.54-2.56-1.4-1.66.49-.31.28.3-.13-1.79,2.81.41,3,2.72s2.24,1.9,2.27,2S111,176,111,176Z" transform="translate(-71 -82)"/><path class="cls-1" d="M107.48,169.63" transform="translate(-71 -82)"/><path class="cls-1" d="M102.07,169" transform="translate(-71 -82)"/><path class="cls-1" d="M102.45,168.56" transform="translate(-71 -82)"/><polygon class="cls-1" points="31.04 86.9 31 86.94 31 88.27 31.07 88.44 31.61 88.13 31.04 86.9"/><path class="cls-3" d="M112,176.77" transform="translate(-71 -82)"/><polygon class="cls-1" points="39.59 95.12 39.56 95.15 39.54 95.09 39.59 95.12"/><path class="cls-1" d="M110.4,177.13" transform="translate(-71 -82)"/><path class="cls-1" d="M195.24,133.47" transform="translate(-71 -82)"/></svg>